<?xml version="1.0" encoding="UTF-8"?>
<svg width="100" height="100" viewBox="0 0 100 100" xmlns="http://www.w3.org/2000/svg">
  <path d="M50 0C22.4 0 0 22.4 0 50s22.4 50 50 50 50-22.4 50-50S77.6 0 50 0zm0 10c22.1 0 40 17.9 40 40 0 8.9-2.9 17.1-7.9 23.7L55.6 46.9V45h18v-8H48v15.8l14.9 14.9H35V55h-5v15h35v-3.4l5.4 5.4C65.4 75.8 58.3 78 50.5 78c-15.7 0-28.5-12.8-28.5-28.5S34.8 21 50.5 21c7.9 0 15 3.2 20.1 8.4l5.7-5.7C69.4 17.2 60.4 13 50.5 13c-20.4 0-37 16.6-37 37s16.6 37 37 37 37-16.6 37-37c0-10.3-4.2-19.6-11-26.3L90 24.1C97.2 32 101 42.5 101 54c0 28.1-22.9 51-51 51S-1 82.1-1 54c0-28.1 22.9-51 51-51 11.6 0 22.3 3.9 30.9 10.4L76.2 18C68.8 12.7 59.8 10 50 10z" fill="black"/>
</svg>
